<svg width="118" height="106" viewBox="0 0 118 106" fill="none" xmlns="http://www.w3.org/2000/svg">
<g filter="url(#filter0_f_5343_3150)">
<path d="M85.6631 71.1397C89.889 69.9795 97.6116 66.7124 100.42 64.2205C103.653 61.6197 97.1659 58.4535 96.3987 57.9817C95.6315 57.5099 57.8467 37.5538 51.2469 34.4463C44.6471 31.3387 23.3548 37.0009 18.1651 39.7131C13.9348 41.9239 16.8411 43.6373 17.3858 44.1034C17.9305 44.5696 49.3557 63.1509 60.6757 68.866C69.2484 73.194 77.3683 73.417 85.6631 71.1397Z" fill="black" fill-opacity="0.2"/>
</g>
<path fill-rule="evenodd" clip-rule="evenodd" d="M55.8935 50.4611L60.1767 48.6045L60.1776 48.6069C60.2051 48.5944 60.2327 48.5823 60.2606 48.5707C62.8109 47.5026 66.3432 50.1586 68.1501 54.5032C69.957 58.8477 69.3543 63.2355 66.8039 64.3036C66.7695 64.318 66.735 64.3317 66.7003 64.3448L62.5679 66.1386L60.4284 61.1131C59.8526 60.3085 59.3365 59.3859 58.9144 58.3711C58.5252 57.4353 58.2478 56.4975 58.0776 55.5913L55.8935 50.4611Z" fill="black"/>
<ellipse cx="5.00877" cy="8.50911" rx="5.00877" ry="8.50911" transform="matrix(-0.921953 0.38611 0.384195 0.923749 60.6344 48.4893)" fill="black"/>
<g filter="url(#filter1_i_5343_3150)">
<ellipse cx="3.75675" cy="6.38214" rx="3.75675" ry="6.38214" transform="matrix(-0.921953 0.38611 0.384195 0.923749 60.153 50.938)" fill="url(#paint0_linear_5343_3150)"/>
</g>
<g filter="url(#filter2_di_5343_3150)">
<path fill-rule="evenodd" clip-rule="evenodd" d="M59.4088 53.742C59.9421 54.0754 60.4641 54.5634 60.9309 55.173L59.7874 57.0484C59.6461 56.8737 59.493 56.7274 59.3359 56.615L59.4088 53.742ZM59.2453 60.1882C59.4786 60.287 59.7103 60.3051 59.9164 60.2243L61.4465 63.0464C61.3619 63.099 61.2732 63.145 61.1803 63.1839C60.5699 63.4395 59.8692 63.3531 59.174 62.9964L59.2453 60.1882ZM58.9575 62.8765L59.0287 60.0736C58.8436 59.9562 58.6622 59.7909 58.4968 59.5868L57.3763 61.4245C57.8613 62.0516 58.4045 62.5477 58.9575 62.8765ZM59.1198 56.4834L59.1925 53.6156C58.4708 53.2232 57.7392 53.1195 57.1049 53.3851C56.9278 53.4593 56.7657 53.5592 56.6191 53.6818L58.1631 56.5297C58.2197 56.4825 58.2823 56.444 58.3506 56.4154C58.5847 56.3174 58.8531 56.349 59.1198 56.4834ZM56.2643 59.4899C56.5338 60.1378 56.8649 60.7254 57.2346 61.2353L58.3553 59.3972C58.2302 59.2148 58.1177 59.009 58.0244 58.7845C58.013 58.7572 58.0021 58.7299 57.9915 58.7027L56.1317 59.1524C56.1733 59.2649 56.2175 59.3774 56.2643 59.4899ZM59.9288 57.2382L61.072 55.3633C61.4331 55.8662 61.7567 56.4437 62.0209 57.0791C62.0746 57.208 62.1248 57.337 62.1716 57.4658L60.2876 57.9214C60.2781 57.8972 60.2684 57.8731 60.2583 57.8489C60.1653 57.6252 60.0533 57.4201 59.9288 57.2382ZM56.0575 58.9443C55.748 58.0405 55.6046 57.1494 55.6164 56.3496L57.7737 57.6734C57.7812 57.9315 57.8287 58.2105 57.9183 58.4943L56.0575 58.9443ZM60.3614 58.1296C60.469 58.4667 60.517 58.7974 60.5092 59.0943L62.6627 60.4158C62.7026 59.5812 62.5675 58.6357 62.2445 57.6743L60.3614 58.1296ZM62.6455 60.663L60.489 59.3397C60.441 59.6764 60.3112 59.9512 60.1065 60.1144L61.6271 62.919C62.2074 62.4581 62.5547 61.6494 62.6455 60.663ZM55.6255 56.0974L57.7798 57.4194C57.8025 57.1349 57.8795 56.887 58.007 56.7024L56.4534 53.8368C55.9624 54.3487 55.6799 55.1493 55.6255 56.0974Z" fill="#4C4C4C"/>
</g>
<path fill-rule="evenodd" clip-rule="evenodd" d="M55.8975 50.3714L60.1807 48.5149L60.1813 48.5162C60.2077 48.5042 60.2344 48.4926 60.2613 48.4813C62.8117 47.4132 66.3439 50.0693 68.1508 54.4138C69.9577 58.7584 69.355 63.1462 66.8046 64.2143C66.7771 64.2258 66.7495 64.2369 66.7218 64.2475L62.572 66.0489L60.4378 61.0358C59.8585 60.2284 59.3393 59.3016 58.9151 58.2818C58.5239 57.341 58.2456 56.3982 58.0756 55.4874L55.8975 50.3714Z" fill="black"/>
<path d="M54.6187 60.2162C56.4242 64.5573 59.9553 67.2107 62.5057 66.1426C65.0561 65.0745 65.6599 60.6895 63.8544 56.3484C62.0489 52.0073 58.4153 49.1201 55.865 50.1882C53.3146 51.2563 52.8131 55.8751 54.6187 60.2162Z" fill="#2D2C2C"/>
<g filter="url(#filter3_i_5343_3150)">
<ellipse cx="3.52084" cy="6.15483" rx="3.52084" ry="6.15483" transform="matrix(-0.918177 0.396377 0.370986 0.928609 60.1357 51.1738)" fill="url(#paint1_linear_5343_3150)"/>
</g>
<g filter="url(#filter4_di_5343_3150)">
<path fill-rule="evenodd" clip-rule="evenodd" d="M56.9149 59.6053C57.8008 61.5927 59.3337 62.8433 60.5587 62.6092L59.6668 60.422C59.1465 60.3946 58.556 59.8936 58.1613 59.1273L56.9149 59.6053ZM56.6712 58.9921C55.9658 56.9821 56.1773 55.0186 57.1519 54.2544L58.0434 56.4406C57.7031 56.8642 57.6428 57.6743 57.9099 58.5171L56.6712 58.9921ZM60.2893 57.6045C59.8812 56.7059 59.2041 56.1202 58.63 56.1387L57.7445 53.9671C59.0148 53.6649 60.6417 55.0048 61.5295 57.1288L60.2893 57.6045ZM60.511 58.2261L61.7589 57.7475C62.4035 59.7323 62.155 61.6383 61.1625 62.3493L60.2765 60.1765C60.6326 59.7992 60.7253 59.0402 60.511 58.2261Z" fill="#A9A8A8"/>
</g>
<path fill-rule="evenodd" clip-rule="evenodd" d="M24.4902 33.6497L28.2451 32.7794L28.2456 32.7819C28.2696 32.7759 28.2938 32.7703 28.318 32.765C30.5482 32.2771 33.023 34.9608 33.8456 38.7591C34.6682 42.5574 33.5271 46.032 31.2969 46.5199C31.2634 46.5272 31.2298 46.5338 31.1962 46.5397L27.5838 47.3791L26.5926 42.9802C26.244 42.2404 25.9615 41.4136 25.7693 40.5258C25.5919 39.707 25.5059 38.9033 25.5023 38.1413L24.4902 33.6497Z" fill="black"/>
<ellipse cx="4.13669" cy="7.02627" rx="4.13669" ry="7.02627" transform="matrix(-0.976187 0.213537 0.211819 0.978055 28.6301 32.7544)" fill="black"/>
<g filter="url(#filter5_i_5343_3150)">
<ellipse cx="3.10268" cy="5.26999" rx="3.10268" ry="5.26999" transform="matrix(-0.976187 0.213537 0.211819 0.978055 27.877 34.6719)" fill="url(#paint2_linear_5343_3150)"/>
</g>
<g filter="url(#filter6_di_5343_3150)">
<path fill-rule="evenodd" clip-rule="evenodd" d="M26.8528 36.8369C27.2369 37.1873 27.5887 37.6617 27.8776 38.2269L26.6694 39.5811C26.5804 39.418 26.4777 39.2761 26.3667 39.1613L26.8528 36.8369ZM25.7624 42.0507C25.9376 42.166 26.1234 42.2151 26.3032 42.1799L27.1268 44.6998C27.0505 44.7299 26.9717 44.7539 26.8907 44.7716C26.3565 44.8885 25.7999 44.7137 25.2879 44.3198L25.7624 42.0507ZM25.1299 44.1902L25.6035 41.9254C25.4707 41.8025 25.348 41.6414 25.2439 41.4511L24.0619 42.7759C24.3625 43.3571 24.7298 43.8407 25.1299 44.1902ZM26.2107 39.0222L26.6959 36.7021C26.1682 36.2764 25.5897 36.0836 25.0354 36.2048C24.8803 36.2388 24.7336 36.2958 24.5962 36.3738L25.4274 38.9169C25.4802 38.8872 25.5364 38.8654 25.5959 38.8524C25.8007 38.8076 26.014 38.8733 26.2107 39.0222ZM23.446 41.0388C23.5687 41.6053 23.7504 42.1319 23.9749 42.6011L25.1572 41.276C25.0825 41.1091 25.0216 40.925 24.9791 40.7285C24.9739 40.7045 24.969 40.6806 24.9645 40.6567L23.3884 40.745C23.4055 40.8425 23.4247 40.9405 23.446 41.0388ZM26.756 39.7564L27.964 38.4025C28.1826 38.8648 28.3597 39.3821 28.48 39.9377C28.5045 40.0504 28.5261 40.1627 28.545 40.2744L26.9457 40.3639C26.9417 40.343 26.9374 40.3221 26.9328 40.3011C26.8905 40.1057 26.8301 39.9226 26.756 39.7564ZM23.3591 40.5649C23.242 39.7852 23.2576 39.0406 23.3857 38.393L24.9404 39.7888C24.9083 39.9993 24.9054 40.2329 24.936 40.4765L23.3591 40.5649ZM26.9748 40.5441C27.0122 40.8342 27.0021 41.1102 26.9516 41.3505L28.5055 42.7455C28.6621 42.073 28.6929 41.2843 28.5733 40.4545L26.9748 40.5441ZM28.4547 42.9437L26.8988 41.5468C26.8098 41.8128 26.6639 42.0164 26.4738 42.1186L27.2925 44.6233C27.8321 44.3356 28.2343 43.7308 28.4547 42.9437ZM23.4304 38.1894L24.9831 39.5833C25.0439 39.355 25.1435 39.1648 25.2749 39.0337L24.4386 36.475C23.9636 36.818 23.6153 37.4269 23.4304 38.1894Z" fill="#4C4C4C"/>
</g>
<path fill-rule="evenodd" clip-rule="evenodd" d="M24.4755 33.7476L28.2303 32.8773L28.2305 32.8784C28.2543 32.8724 28.2782 32.8668 28.3022 32.8616C30.5324 32.3737 33.0072 35.0573 33.8298 38.8557C34.6524 42.654 33.5113 46.1286 31.281 46.6165C31.2585 46.6214 31.2358 46.626 31.2132 46.6303L27.569 47.4771L26.5783 43.08C26.229 42.3394 25.946 41.5114 25.7534 40.6224C25.5758 39.8024 25.4898 38.9974 25.4864 38.2343L24.4755 33.7476Z" fill="black"/>
<ellipse cx="4.18266" cy="7.10434" rx="4.18266" ry="7.10434" transform="matrix(-0.976187 0.213537 0.211819 0.978055 28.6458 32.6821)" fill="#2C2C2C"/>
<g filter="url(#filter7_i_5343_3150)">
<g filter="url(#filter8_i_5343_3150)">
<ellipse cx="2.91076" cy="5.08844" rx="2.91076" ry="5.08844" transform="matrix(-0.962889 0.267119 0.280029 0.960737 27.186 35.3237)" fill="url(#paint3_linear_5343_3150)"/>
</g>
<g filter="url(#filter9_di_5343_3150)">
<path fill-rule="evenodd" clip-rule="evenodd" d="M23.7052 41.7412C24.2061 43.4618 25.3183 44.685 26.3518 44.6802L25.8696 42.7826C25.4497 42.6799 25.0288 42.1986 24.7931 41.5358L23.7052 41.7412ZM23.5706 41.1943C23.2234 39.4736 23.624 37.923 24.5129 37.4435L24.9953 39.3418C24.6708 39.6375 24.53 40.2775 24.651 40.9903L23.5706 41.1943ZM26.7224 40.5994C26.4891 39.8126 25.996 39.2406 25.5185 39.1753L25.0405 37.2941C26.1251 37.233 27.3135 38.5514 27.7996 40.396L26.7224 40.5994ZM26.8352 41.1504L27.92 40.9456C28.2156 42.6363 27.7873 44.1317 26.8865 44.559L26.4086 42.6783C26.7467 42.429 26.9133 41.8349 26.8352 41.1504Z" fill="#A9A8A8"/>
</g>
</g>
<g filter="url(#filter10_ii_5343_3150)">
<path fill-rule="evenodd" clip-rule="evenodd" d="M80.2301 32.9573C80.2691 32.9914 80.3106 33.0227 80.3548 33.0498C80.5092 33.144 80.6482 33.2107 80.7723 33.2474C82.3334 33.7081 95.3166 41.2644 98.1136 44.2395C100.835 47.1348 100.638 48.819 100.546 49.6009C100.533 49.7138 100.522 49.8079 100.522 49.8841C100.523 50.2642 100.501 51.0283 100.473 52.0006C100.456 52.5732 100.437 53.2179 100.42 53.8989L100.361 56.2125C100.351 56.3852 100.348 56.5616 100.344 56.7416C100.328 57.5063 100.31 58.3377 99.8186 59.2366C99.2124 60.3448 96.3186 64.3908 82.6748 68.3003C78.0484 69.626 72.7572 67.8885 69.3933 66.3931C67.9869 65.8279 66.9248 65.2896 66.4011 65.0122C66.3206 64.9696 66.2592 64.9044 66.2204 64.8264C66.2099 64.8053 66.1921 64.7857 66.1714 64.7744C66.1402 64.7573 66.1223 64.7269 66.1204 64.6914C66.059 63.5324 65.8256 61.8976 65.4647 60.26C65.0524 58.5005 64.4943 56.7542 63.8625 55.6079C62.3754 52.9098 59.1499 49.5471 56.5252 50.3794C53.5465 51.3239 53.6656 55.5764 53.6966 56.5919C53.7057 56.8905 53.7352 57.0902 53.7644 57.2875L53.7644 57.2875C53.7975 57.5119 53.8302 57.733 53.8319 58.0927C53.832 58.1105 53.831 58.1278 53.829 58.1448C53.8271 58.1611 53.8254 58.1775 53.8253 58.1939C53.8249 58.2535 53.8232 58.319 53.8201 58.3915C53.8153 58.503 53.6947 58.5687 53.597 58.515C53.5608 58.4952 53.5184 58.4921 53.4775 58.4981C53.3891 58.5111 53.2943 58.4969 53.206 58.4488L30.6458 46.1746C30.5261 46.1095 30.4422 45.9927 30.4276 45.8572C30.3731 45.3538 30.3894 44.7699 30.4076 44.1188C30.4578 42.3207 30.5222 40.0097 29.1512 37.4624C27.8979 35.134 26.0259 33.5664 24.2775 34.0668C22.5292 34.5671 22.0101 36.4234 21.8891 37.4615C21.7703 38.4809 21.8017 39.4201 21.8199 39.9648L21.8199 39.965C21.8272 40.1841 21.8324 40.3393 21.8248 40.4102C21.7984 40.6573 19.3555 38.4449 19.2157 37.622C18.7904 35.1173 18.7477 32.781 19.0683 30.2579C19.1208 29.8451 19.2997 28.8038 19.4266 28.3957C19.4458 28.3336 19.4567 28.2696 19.4545 28.2047C19.4242 27.3352 19.6081 26.0636 19.8593 25.5292C19.8818 25.4814 19.9038 25.431 19.9269 25.3781C20.1966 24.7606 20.6179 23.7961 23.7088 22.5068C28.0977 20.6761 40.0241 16.6553 40.4839 16.5659C41.5702 16.3547 42.9513 16.4923 44.0694 16.6037C44.7254 16.6691 45.2909 16.7255 45.6531 16.697C50.885 16.2863 56.9156 17.1602 64.7948 21.3887C65.8522 21.8693 66.8959 22.4137 67.9043 23.0305C70.4226 24.5709 72.5361 26.1923 74.2901 27.6794C76.3384 29.3286 77.9127 30.8046 79.0429 31.8642C79.5156 32.3073 79.9106 32.6776 80.2301 32.9573Z" fill="url(#paint4_linear_5343_3150)"/>
</g>
<g filter="url(#filter11_ddi_5343_3150)">
<path d="M59.1057 41.4827C56.2339 40.2076 54.7029 36.2216 50.4165 31.4898C50.3117 31.3741 50.3549 31.1874 50.5012 31.1329L68.668 24.3663C68.7012 24.3539 68.7359 24.3498 68.7702 24.3584C69.0887 24.4381 70.9358 25.0695 75.9551 29.7144C78.4782 32.0493 78.9798 32.6536 80.2903 33.586C80.4976 33.7335 80.453 34.0456 79.6621 34.6645C77.1409 36.6374 63.3523 43.3682 59.1057 41.4827Z" fill="url(#paint5_linear_5343_3150)"/>
</g>
<g filter="url(#filter12_di_5343_3150)">
<path d="M39.0251 25.6766C35.2406 24.3791 34.2591 24.3474 31.6292 24.1321C29.8196 23.9839 26.9356 24.1789 26.601 24.9869C26.2663 25.7949 29.6847 28.4459 31.1064 29.2804C31.8012 29.6883 55.8031 42.4893 55.0666 41.0297C54.1592 39.2314 49.9042 34.0523 48.4595 31.9449C46.051 28.4313 42.8095 26.9741 39.0251 25.6766Z" fill="url(#paint6_linear_5343_3150)"/>
</g>
<g filter="url(#filter13_di_5343_3150)">
<path d="M30.4391 23.0549L46.6095 16.9419C46.6095 16.9419 46.2475 17.0593 44.2844 16.9805C43.5993 16.953 26.8153 23.3602 26.6913 23.4638L30.4391 23.0549Z" fill="url(#paint7_linear_5343_3150)"/>
</g>
<g filter="url(#filter14_f_5343_3150)">
<path d="M66.2361 50.4594C60.162 47.4461 56.7992 43.7715 53.1795 40.3988C64.1236 43.9485 87.0226 51.6896 86.6492 52.1461C86.1823 52.7167 84.5071 53.3652 78.9895 53.5968C73.5573 53.8248 66.9315 50.8045 66.2361 50.4594Z" fill="url(#paint8_linear_5343_3150)" fill-opacity="0.21"/>
</g>
<g filter="url(#filter15_f_5343_3150)">
<path d="M90.3174 37.4225C89.9754 37.1264 85.7024 32.4668 82.474 30.1191C85.0554 35.4886 90.9554 47.1669 91.5327 47.1239C92.2544 47.0701 95.5637 46.5369 96.5908 44.3203C97.602 42.1381 90.7449 37.7926 90.3174 37.4225Z" fill="url(#paint9_linear_5343_3150)" fill-opacity="0.13"/>
</g>
<g filter="url(#filter16_di_5343_3150)">
<path d="M44.5831 41.3413C44.5853 41.2571 44.5391 41.1789 44.4643 41.1402L42.394 40.0674C42.2502 39.9929 42.0783 40.0946 42.0742 40.2567L42.0656 40.5954C42.0634 40.6798 42.1097 40.7581 42.1847 40.7967L44.2551 41.8654C44.3989 41.9396 44.5705 41.8379 44.5746 41.6759L44.5831 41.3413Z" fill="#323232"/>
</g>
<g filter="url(#filter17_di_5343_3150)">
<path d="M32.9549 35.8516C32.9571 35.7673 32.9109 35.6892 32.8362 35.6505L30.7658 34.5777C30.622 34.5031 30.4501 34.6049 30.446 34.767L30.4374 35.1057C30.4353 35.1901 30.4815 35.2683 30.5565 35.307L32.6269 36.3757C32.7707 36.4499 32.9423 36.3481 32.9464 36.1862L32.9549 35.8516Z" fill="#323232"/>
</g>
<g filter="url(#filter18_f_5343_3150)">
<path d="M51.4418 56.2407L31.7701 45.983C31.6619 45.9266 31.5821 45.828 31.55 45.7102C31.0599 43.9112 30.1703 40.4716 30.1682 39.7505C30.1655 38.8172 53.6148 50.7122 52.7303 52.801C52.2736 53.8797 52.1704 54.939 52.1974 55.7168C52.2106 56.0979 51.78 56.417 51.4418 56.2407Z" fill="url(#paint10_linear_5343_3150)" fill-opacity="0.12"/>
</g>
<path d="M71.1442 39.0982L57.3937 28.5356C55.7782 28.9294 52.0855 30.4715 51.3831 30.7152C50.473 31.031 50.3184 31.2159 50.3184 31.2159C50.3115 31.4881 50.4474 31.6107 50.8742 32.0471C51.4861 32.6728 51.7446 32.9602 53.2484 34.9842C55.4141 37.899 57.0496 40.6014 58.6663 41.2809C59.9526 41.8215 61.9674 42.3169 64.8749 41.4385C67.4738 40.6533 69.0847 39.7324 71.1442 39.0982Z" fill="#C4C4C4" fill-opacity="0.2"/>
<g opacity="0.17" filter="url(#filter19_f_5343_3150)">
<path d="M95.782 47.8159C91.8882 50.7396 83.2871 54.8421 79.4789 55.4044" stroke="url(#paint11_linear_5343_3150)" stroke-width="7.24648" stroke-linecap="round" stroke-linejoin="round"/>
</g>
<g filter="url(#filter20_ddii_5343_3150)">
<path d="M98.6681 48.9915C99.4295 48.0159 99.2456 47.2153 99.1688 45.9638C99.1667 45.9297 99.1595 45.8933 99.1499 45.8605C98.8566 44.8667 100.197 46.9493 100.307 48.3698C100.343 48.84 100.307 49.0768 100.252 49.5086C100.227 49.7061 99.7885 50.9049 99.8424 51.1674C99.8962 51.43 99.7177 53.2257 99.72 53.4979C99.7222 53.77 98.5357 55.7644 95.5038 57.64C92.9852 59.1981 89.401 60.1718 89.035 60.215C88.6691 60.2582 88.3427 59.0256 88.0797 58.9512C87.3914 58.7568 85.3259 59.4567 84.557 59.6294C83.6599 59.831 81.5668 60.295 79.301 59.9453C76.4984 59.5127 76.0762 59.1821 73.5271 57.7087C71.9116 56.7749 70.7707 55.0492 70.3046 54.0061C70.1785 53.7239 70.4354 53.4822 70.7263 53.5868C72.5049 54.226 76.1697 55.6449 80.3349 56.1791C86.5241 56.9728 91.5001 54.1478 92.213 53.7416C95.2099 52.0343 96.7769 51.4146 98.6681 48.9915Z" fill="#272727"/>
</g>
<mask id="mask0_5343_3150" style="mask-type:alpha" maskUnits="userSpaceOnUse" x="70" y="45" width="31" height="16">
<path d="M98.6684 48.9795C99.2715 48.2057 99.3281 47.2886 99.2043 46.4785C99.1369 46.0375 99.5729 45.8058 99.7909 46.1951C100.331 47.1596 100.55 47.9733 100.607 48.4206C100.644 48.8908 100.625 49.1884 100.57 49.6202C100.545 49.8177 99.7901 50.8921 99.8441 51.1547C99.8981 51.4172 99.7208 53.213 99.7232 53.4852C99.7256 53.7573 98.5403 55.7524 95.5097 57.63C92.9921 59.1897 89.4085 60.1657 89.0426 60.2091C88.6766 60.2526 88.3495 59.0202 88.0864 58.946C87.398 58.752 85.3329 59.4533 84.5642 59.6265C83.6672 59.8286 81.5744 60.294 79.3083 59.9457C76.5054 59.5149 76.0831 59.1846 73.533 57.7128C71.9169 56.7801 70.7749 55.055 70.3082 54.0123C70.1819 53.7301 70.4387 53.4883 70.7296 53.5927C72.5086 54.2307 76.1744 55.6473 80.3399 56.1788C86.5295 56.9686 91.5038 54.1404 92.2164 53.7338C95.2122 52.0245 96.7789 51.4038 98.6684 48.9795Z" fill="#999999"/>
</mask>
<g mask="url(#mask0_5343_3150)">
<g filter="url(#filter21_d_5343_3150)">
<path d="M74.7045 54.5141L83.051 54.8517C83.0516 54.8534 83.0521 54.8551 83.0527 54.8568C83.0741 54.9244 83.1011 55.0224 83.1224 55.1415C83.1651 55.3809 83.1835 55.6983 83.0937 56.0239C83.0049 56.3461 82.8087 56.683 82.4097 56.9663C82.008 57.2515 81.3923 57.4881 80.4572 57.5895C79.9016 57.6498 79.1358 57.6276 78.3528 57.4583C77.5693 57.2889 76.7802 56.9747 76.1675 56.4602C75.8361 56.1819 75.4345 55.6389 75.1087 55.15C74.9477 54.9084 74.8084 54.685 74.7092 54.5218C74.7077 54.5192 74.7061 54.5166 74.7045 54.5141Z" stroke="white" stroke-opacity="0.9" stroke-width="0.326736"/>
</g>
<g filter="url(#filter22_d_5343_3150)">
<path d="M99.1732 46.3901C99.174 46.3916 99.1748 46.393 99.1756 46.3945C99.2491 46.5321 99.3402 46.7303 99.4101 46.971C99.5496 47.452 99.6026 48.0955 99.2683 48.77C99.1732 48.962 99.0417 49.088 98.9097 49.1375C98.787 49.1835 98.6411 49.1727 98.479 49.0434C98.3673 48.9543 98.2109 48.9161 98.0677 48.8981C97.9187 48.8793 97.7554 48.8794 97.6072 48.8869C97.5437 48.8901 97.4821 48.8947 97.4245 48.9L99.1732 46.3901Z" stroke="white" stroke-opacity="0.9" stroke-width="0.326736"/>
</g>
</g>
<defs>
<filter id="filter0_f_5343_3150" x="14.9493" y="32.5829" width="87.3245" height="40.9437" filterUnits="userSpaceOnUse" color-interpolation-filters="sRGB">
<feFlood flood-opacity="0" result="BackgroundImageFix"/>
<feBlend mode="normal" in="SourceGraphic" in2="BackgroundImageFix" result="shape"/>
<feGaussianBlur stdDeviation="0.478349" result="effect1_foregroundBlur_5343_3150"/>
</filter>
<filter id="filter1_i_5343_3150" x="54.8975" y="52.2114" width="8.48792" height="12.1455" filterUnits="userSpaceOnUse" color-interpolation-filters="sRGB">
<feFlood flood-opacity="0" result="BackgroundImageFix"/>
<feBlend mode="normal" in="SourceGraphic" in2="BackgroundImageFix" result="shape"/>
<feColorMatrix in="SourceAlpha" type="matrix" values="0 0 0 0 0 0 0 0 0 0 0 0 0 0 0 0 0 0 127 0" result="hardAlpha"/>
<feMorphology radius="0.109795" operator="erode" in="SourceAlpha" result="effect1_innerShadow_5343_3150"/>
<feOffset/>
<feGaussianBlur stdDeviation="0.0548976"/>
<feComposite in2="hardAlpha" operator="arithmetic" k2="-1" k3="1"/>
<feColorMatrix type="matrix" values="0 0 0 0 0 0 0 0 0 0 0 0 0 0 0 0 0 0 0.25 0"/>
<feBlend mode="normal" in2="shape" result="effect1_innerShadow_5343_3150"/>
</filter>
<filter id="filter2_di_5343_3150" x="55.2863" y="53.2158" width="7.4491" height="10.3348" filterUnits="userSpaceOnUse" color-interpolation-filters="sRGB">
<feFlood flood-opacity="0" result="BackgroundImageFix"/>
<feColorMatrix in="SourceAlpha" type="matrix" values="0 0 0 0 0 0 0 0 0 0 0 0 0 0 0 0 0 0 127 0" result="hardAlpha"/>
<feOffset dy="0.0439181"/>
<feGaussianBlur stdDeviation="0.0329386"/>
<feColorMatrix type="matrix" values="0 0 0 0 1 0 0 0 0 1 0 0 0 0 1 0 0 0 0.41 0"/>
<feBlend mode="normal" in2="BackgroundImageFix" result="effect1_dropShadow_5343_3150"/>
<feBlend mode="normal" in="SourceGraphic" in2="effect1_dropShadow_5343_3150" result="shape"/>
<feColorMatrix in="SourceAlpha" type="matrix" values="0 0 0 0 0 0 0 0 0 0 0 0 0 0 0 0 0 0 127 0" result="hardAlpha"/>
<feOffset dx="-0.329386" dy="0.21959"/>
<feGaussianBlur stdDeviation="0.164693"/>
<feComposite in2="hardAlpha" operator="arithmetic" k2="-1" k3="1"/>
<feColorMatrix type="matrix" values="0 0 0 0 0 0 0 0 0 0 0 0 0 0 0 0 0 0 0.25 0"/>
<feBlend mode="normal" in2="shape" result="effect2_innerShadow_5343_3150"/>
</filter>
<filter id="filter3_i_5343_3150" x="55.2281" y="52.3999" width="7.91638" height="11.7695" filterUnits="userSpaceOnUse" color-interpolation-filters="sRGB">
<feFlood flood-opacity="0" result="BackgroundImageFix"/>
<feBlend mode="normal" in="SourceGraphic" in2="BackgroundImageFix" result="shape"/>
<feColorMatrix in="SourceAlpha" type="matrix" values="0 0 0 0 0 0 0 0 0 0 0 0 0 0 0 0 0 0 127 0" result="hardAlpha"/>
<feMorphology radius="0.27228" operator="erode" in="SourceAlpha" result="effect1_innerShadow_5343_3150"/>
<feOffset/>
<feGaussianBlur stdDeviation="0.13614"/>
<feComposite in2="hardAlpha" operator="arithmetic" k2="-1" k3="1"/>
<feColorMatrix type="matrix" values="0 0 0 0 0 0 0 0 0 0 0 0 0 0 0 0 0 0 0.25 0"/>
<feBlend mode="normal" in2="shape" result="effect1_innerShadow_5343_3150"/>
</filter>
<filter id="filter4_di_5343_3150" x="55.9068" y="53.9016" width="6.3244" height="8.96776" filterUnits="userSpaceOnUse" color-interpolation-filters="sRGB">
<feFlood flood-opacity="0" result="BackgroundImageFix"/>
<feColorMatrix in="SourceAlpha" type="matrix" values="0 0 0 0 0 0 0 0 0 0 0 0 0 0 0 0 0 0 127 0" result="hardAlpha"/>
<feOffset dy="0.0928589"/>
<feGaussianBlur stdDeviation="0.0580368"/>
<feColorMatrix type="matrix" values="0 0 0 0 1 0 0 0 0 1 0 0 0 0 1 0 0 0 0.59 0"/>
<feBlend mode="normal" in2="BackgroundImageFix" result="effect1_dropShadow_5343_3150"/>
<feBlend mode="normal" in="SourceGraphic" in2="effect1_dropShadow_5343_3150" result="shape"/>
<feColorMatrix in="SourceAlpha" type="matrix" values="0 0 0 0 0 0 0 0 0 0 0 0 0 0 0 0 0 0 127 0" result="hardAlpha"/>
<feOffset dx="-0.348221" dy="0.232147"/>
<feGaussianBlur stdDeviation="0.17411"/>
<feComposite in2="hardAlpha" operator="arithmetic" k2="-1" k3="1"/>
<feColorMatrix type="matrix" values="0 0 0 0 0 0 0 0 0 0 0 0 0 0 0 0 0 0 0.25 0"/>
<feBlend mode="normal" in2="shape" result="effect2_innerShadow_5343_3150"/>
</filter>
<filter id="filter5_i_5343_3150" x="22.7356" y="35.2915" width="6.45764" height="10.3945" filterUnits="userSpaceOnUse" color-interpolation-filters="sRGB">
<feFlood flood-opacity="0" result="BackgroundImageFix"/>
<feBlend mode="normal" in="SourceGraphic" in2="BackgroundImageFix" result="shape"/>
<feColorMatrix in="SourceAlpha" type="matrix" values="0 0 0 0 0 0 0 0 0 0 0 0 0 0 0 0 0 0 127 0" result="hardAlpha"/>
<feMorphology radius="0.0906703" operator="erode" in="SourceAlpha" result="effect1_innerShadow_5343_3150"/>
<feOffset/>
<feGaussianBlur stdDeviation="0.0453351"/>
<feComposite in2="hardAlpha" operator="arithmetic" k2="-1" k3="1"/>
<feColorMatrix type="matrix" values="0 0 0 0 0 0 0 0 0 0 0 0 0 0 0 0 0 0 0.25 0"/>
<feBlend mode="normal" in2="shape" result="effect1_innerShadow_5343_3150"/>
</filter>
<filter id="filter6_di_5343_3150" x="23.0078" y="36.1508" width="5.69287" height="8.83766" filterUnits="userSpaceOnUse" color-interpolation-filters="sRGB">
<feFlood flood-opacity="0" result="BackgroundImageFix"/>
<feColorMatrix in="SourceAlpha" type="matrix" values="0 0 0 0 0 0 0 0 0 0 0 0 0 0 0 0 0 0 127 0" result="hardAlpha"/>
<feOffset dy="0.0362681"/>
<feGaussianBlur stdDeviation="0.0272011"/>
<feColorMatrix type="matrix" values="0 0 0 0 1 0 0 0 0 1 0 0 0 0 1 0 0 0 0.41 0"/>
<feBlend mode="normal" in2="BackgroundImageFix" result="effect1_dropShadow_5343_3150"/>
<feBlend mode="normal" in="SourceGraphic" in2="effect1_dropShadow_5343_3150" result="shape"/>
<feColorMatrix in="SourceAlpha" type="matrix" values="0 0 0 0 0 0 0 0 0 0 0 0 0 0 0 0 0 0 127 0" result="hardAlpha"/>
<feOffset dx="-0.272011" dy="0.181341"/>
<feGaussianBlur stdDeviation="0.136005"/>
<feComposite in2="hardAlpha" operator="arithmetic" k2="-1" k3="1"/>
<feColorMatrix type="matrix" values="0 0 0 0 0 0 0 0 0 0 0 0 0 0 0 0 0 0 0.25 0"/>
<feBlend mode="normal" in2="shape" result="effect2_innerShadow_5343_3150"/>
</filter>
<filter id="filter7_i_5343_3150" x="22.6633" y="36.0391" width="6.28967" height="9.90186" filterUnits="userSpaceOnUse" color-interpolation-filters="sRGB">
<feFlood flood-opacity="0" result="BackgroundImageFix"/>
<feBlend mode="normal" in="SourceGraphic" in2="BackgroundImageFix" result="shape"/>
<feColorMatrix in="SourceAlpha" type="matrix" values="0 0 0 0 0 0 0 0 0 0 0 0 0 0 0 0 0 0 127 0" result="hardAlpha"/>
<feMorphology radius="0.27228" operator="erode" in="SourceAlpha" result="effect1_innerShadow_5343_3150"/>
<feOffset/>
<feGaussianBlur stdDeviation="0.13614"/>
<feComposite in2="hardAlpha" operator="arithmetic" k2="-1" k3="1"/>
<feColorMatrix type="matrix" values="0 0 0 0 0 0 0 0 0 0 0 0 0 0 0 0 0 0 0.25 0"/>
<feBlend mode="normal" in2="shape" result="effect1_innerShadow_5343_3150"/>
</filter>
<filter id="filter8_i_5343_3150" x="22.6633" y="36.0391" width="6.28967" height="9.90186" filterUnits="userSpaceOnUse" color-interpolation-filters="sRGB">
<feFlood flood-opacity="0" result="BackgroundImageFix"/>
<feBlend mode="normal" in="SourceGraphic" in2="BackgroundImageFix" result="shape"/>
<feColorMatrix in="SourceAlpha" type="matrix" values="0 0 0 0 0 0 0 0 0 0 0 0 0 0 0 0 0 0 127 0" result="hardAlpha"/>
<feMorphology radius="0.0816021" operator="erode" in="SourceAlpha" result="effect1_innerShadow_5343_3150"/>
<feOffset/>
<feGaussianBlur stdDeviation="0.0408011"/>
<feComposite in2="hardAlpha" operator="arithmetic" k2="-1" k3="1"/>
<feColorMatrix type="matrix" values="0 0 0 0 0 0 0 0 0 0 0 0 0 0 0 0 0 0 0.25 0"/>
<feBlend mode="normal" in2="shape" result="effect1_innerShadow_5343_3150"/>
</filter>
<filter id="filter9_di_5343_3150" x="23.0981" y="37.2688" width="5.03082" height="7.64355" filterUnits="userSpaceOnUse" color-interpolation-filters="sRGB">
<feFlood flood-opacity="0" result="BackgroundImageFix"/>
<feColorMatrix in="SourceAlpha" type="matrix" values="0 0 0 0 0 0 0 0 0 0 0 0 0 0 0 0 0 0 127 0" result="hardAlpha"/>
<feOffset dy="0.0928589"/>
<feGaussianBlur stdDeviation="0.0580368"/>
<feColorMatrix type="matrix" values="0 0 0 0 1 0 0 0 0 1 0 0 0 0 1 0 0 0 0.59 0"/>
<feBlend mode="normal" in2="BackgroundImageFix" result="effect1_dropShadow_5343_3150"/>
<feBlend mode="normal" in="SourceGraphic" in2="effect1_dropShadow_5343_3150" result="shape"/>
<feColorMatrix in="SourceAlpha" type="matrix" values="0 0 0 0 0 0 0 0 0 0 0 0 0 0 0 0 0 0 127 0" result="hardAlpha"/>
<feOffset dx="-0.348221" dy="0.232147"/>
<feGaussianBlur stdDeviation="0.17411"/>
<feComposite in2="hardAlpha" operator="arithmetic" k2="-1" k3="1"/>
<feColorMatrix type="matrix" values="0 0 0 0 0 0 0 0 0 0 0 0 0 0 0 0 0 0 0.25 0"/>
<feBlend mode="normal" in2="shape" result="effect2_innerShadow_5343_3150"/>
</filter>
<filter id="filter10_ii_5343_3150" x="18.8578" y="14.2773" width="83.3656" height="54.4946" filterUnits="userSpaceOnUse" color-interpolation-filters="sRGB">
<feFlood flood-opacity="0" result="BackgroundImageFix"/>
<feBlend mode="normal" in="SourceGraphic" in2="BackgroundImageFix" result="shape"/>
<feColorMatrix in="SourceAlpha" type="matrix" values="0 0 0 0 0 0 0 0 0 0 0 0 0 0 0 0 0 0 127 0" result="hardAlpha"/>
<feOffset dx="1.63368" dy="-2.17824"/>
<feGaussianBlur stdDeviation="6.53472"/>
<feComposite in2="hardAlpha" operator="arithmetic" k2="-1" k3="1"/>
<feColorMatrix type="matrix" values="0 0 0 0 0 0 0 0 0 0 0 0 0 0 0 0 0 0 0.07 0"/>
<feBlend mode="normal" in2="shape" result="effect1_innerShadow_5343_3150"/>
<feColorMatrix in="SourceAlpha" type="matrix" values="0 0 0 0 0 0 0 0 0 0 0 0 0 0 0 0 0 0 127 0" result="hardAlpha"/>
<feOffset dy="-0.27228"/>
<feGaussianBlur stdDeviation="0.54456"/>
<feComposite in2="hardAlpha" operator="arithmetic" k2="-1" k3="1"/>
<feColorMatrix type="matrix" values="0 0 0 0 0 0 0 0 0 0 0 0 0 0 0 0 0 0 0.09 0"/>
<feBlend mode="normal" in2="effect1_innerShadow_5343_3150" result="effect2_innerShadow_5343_3150"/>
</filter>
<filter id="filter11_ddi_5343_3150" x="49.9195" y="24.0246" width="30.6959" height="18.1173" filterUnits="userSpaceOnUse" color-interpolation-filters="sRGB">
<feFlood flood-opacity="0" result="BackgroundImageFix"/>
<feColorMatrix in="SourceAlpha" type="matrix" values="0 0 0 0 0 0 0 0 0 0 0 0 0 0 0 0 0 0 127 0" result="hardAlpha"/>
<feOffset dx="-0.21959" dy="0.109795"/>
<feGaussianBlur stdDeviation="0.109795"/>
<feColorMatrix type="matrix" values="0 0 0 0 1 0 0 0 0 1 0 0 0 0 1 0 0 0 0.28 0"/>
<feBlend mode="normal" in2="BackgroundImageFix" result="effect1_dropShadow_5343_3150"/>
<feColorMatrix in="SourceAlpha" type="matrix" values="0 0 0 0 0 0 0 0 0 0 0 0 0 0 0 0 0 0 127 0" result="hardAlpha"/>
<feOffset dy="-0.109795"/>
<feGaussianBlur stdDeviation="0.109795"/>
<feColorMatrix type="matrix" values="0 0 0 0 1 0 0 0 0 1 0 0 0 0 1 0 0 0 0.56 0"/>
<feBlend mode="normal" in2="effect1_dropShadow_5343_3150" result="effect2_dropShadow_5343_3150"/>
<feBlend mode="normal" in="SourceGraphic" in2="effect2_dropShadow_5343_3150" result="shape"/>
<feColorMatrix in="SourceAlpha" type="matrix" values="0 0 0 0 0 0 0 0 0 0 0 0 0 0 0 0 0 0 127 0" result="hardAlpha"/>
<feOffset dx="-0.109795" dy="0.329386"/>
<feGaussianBlur stdDeviation="0.164693"/>
<feComposite in2="hardAlpha" operator="arithmetic" k2="-1" k3="1"/>
<feColorMatrix type="matrix" values="0 0 0 0 0 0 0 0 0 0 0 0 0 0 0 0 0 0 0.75 0"/>
<feBlend mode="normal" in2="shape" result="effect3_innerShadow_5343_3150"/>
</filter>
<filter id="filter12_di_5343_3150" x="26.1388" y="24.0864" width="29.058" height="17.4983" filterUnits="userSpaceOnUse" color-interpolation-filters="sRGB">
<feFlood flood-opacity="0" result="BackgroundImageFix"/>
<feColorMatrix in="SourceAlpha" type="matrix" values="0 0 0 0 0 0 0 0 0 0 0 0 0 0 0 0 0 0 127 0" result="hardAlpha"/>
<feOffset dy="0.113542"/>
<feGaussianBlur stdDeviation="0.0567712"/>
<feColorMatrix type="matrix" values="0 0 0 0 0.925374 0 0 0 0 0.925374 0 0 0 0 0.925374 0 0 0 0.37 0"/>
<feBlend mode="normal" in2="BackgroundImageFix" result="effect1_dropShadow_5343_3150"/>
<feBlend mode="normal" in="SourceGraphic" in2="effect1_dropShadow_5343_3150" result="shape"/>
<feColorMatrix in="SourceAlpha" type="matrix" values="0 0 0 0 0 0 0 0 0 0 0 0 0 0 0 0 0 0 127 0" result="hardAlpha"/>
<feOffset dx="-0.439181" dy="0.548976"/>
<feGaussianBlur stdDeviation="0.21959"/>
<feComposite in2="hardAlpha" operator="arithmetic" k2="-1" k3="1"/>
<feColorMatrix type="matrix" values="0 0 0 0 0 0 0 0 0 0 0 0 0 0 0 0 0 0 0.8 0"/>
<feBlend mode="normal" in2="shape" result="effect2_innerShadow_5343_3150"/>
</filter>
<filter id="filter13_di_5343_3150" x="26.2521" y="16.9419" width="20.4709" height="6.96115" filterUnits="userSpaceOnUse" color-interpolation-filters="sRGB">
<feFlood flood-opacity="0" result="BackgroundImageFix"/>
<feColorMatrix in="SourceAlpha" type="matrix" values="0 0 0 0 0 0 0 0 0 0 0 0 0 0 0 0 0 0 127 0" result="hardAlpha"/>
<feOffset dy="0.113542"/>
<feGaussianBlur stdDeviation="0.0567712"/>
<feColorMatrix type="matrix" values="0 0 0 0 0.925374 0 0 0 0 0.925374 0 0 0 0 0.925374 0 0 0 0.37 0"/>
<feBlend mode="normal" in2="BackgroundImageFix" result="effect1_dropShadow_5343_3150"/>
<feBlend mode="normal" in="SourceGraphic" in2="effect1_dropShadow_5343_3150" result="shape"/>
<feColorMatrix in="SourceAlpha" type="matrix" values="0 0 0 0 0 0 0 0 0 0 0 0 0 0 0 0 0 0 127 0" result="hardAlpha"/>
<feOffset dx="-0.439181" dy="0.548976"/>
<feGaussianBlur stdDeviation="0.21959"/>
<feComposite in2="hardAlpha" operator="arithmetic" k2="-1" k3="1"/>
<feColorMatrix type="matrix" values="0 0 0 0 0 0 0 0 0 0 0 0 0 0 0 0 0 0 0.8 0"/>
<feBlend mode="normal" in2="shape" result="effect2_innerShadow_5343_3150"/>
</filter>
<filter id="filter14_f_5343_3150" x="50.1052" y="37.3247" width="39.6228" height="19.3585" filterUnits="userSpaceOnUse" color-interpolation-filters="sRGB">
<feFlood flood-opacity="0" result="BackgroundImageFix"/>
<feBlend mode="normal" in="SourceGraphic" in2="BackgroundImageFix" result="shape"/>
<feGaussianBlur stdDeviation="1.53713" result="effect1_foregroundBlur_5343_3150"/>
</filter>
<filter id="filter15_f_5343_3150" x="80.4977" y="28.1428" width="18.1711" height="20.9575" filterUnits="userSpaceOnUse" color-interpolation-filters="sRGB">
<feFlood flood-opacity="0" result="BackgroundImageFix"/>
<feBlend mode="normal" in="SourceGraphic" in2="BackgroundImageFix" result="shape"/>
<feGaussianBlur stdDeviation="0.988157" result="effect1_foregroundBlur_5343_3150"/>
</filter>
<filter id="filter16_di_5343_3150" x="42.0111" y="39.9336" width="2.62649" height="2.22885" filterUnits="userSpaceOnUse" color-interpolation-filters="sRGB">
<feFlood flood-opacity="0" result="BackgroundImageFix"/>
<feColorMatrix in="SourceAlpha" type="matrix" values="0 0 0 0 0 0 0 0 0 0 0 0 0 0 0 0 0 0 127 0" result="hardAlpha"/>
<feOffset dy="-0.054456"/>
<feGaussianBlur stdDeviation="0.027228"/>
<feColorMatrix type="matrix" values="0 0 0 0 0.78755 0 0 0 0 0.78755 0 0 0 0 0.78755 0 0 0 0.19 0"/>
<feBlend mode="normal" in2="BackgroundImageFix" result="effect1_dropShadow_5343_3150"/>
<feBlend mode="normal" in="SourceGraphic" in2="effect1_dropShadow_5343_3150" result="shape"/>
<feColorMatrix in="SourceAlpha" type="matrix" values="0 0 0 0 0 0 0 0 0 0 0 0 0 0 0 0 0 0 127 0" result="hardAlpha"/>
<feOffset dy="0.27228"/>
<feGaussianBlur stdDeviation="0.13614"/>
<feComposite in2="hardAlpha" operator="arithmetic" k2="-1" k3="1"/>
<feColorMatrix type="matrix" values="0 0 0 0 0 0 0 0 0 0 0 0 0 0 0 0 0 0 0.74 0"/>
<feBlend mode="normal" in2="shape" result="effect2_innerShadow_5343_3150"/>
</filter>
<filter id="filter17_di_5343_3150" x="30.3829" y="34.4438" width="2.62649" height="2.22885" filterUnits="userSpaceOnUse" color-interpolation-filters="sRGB">
<feFlood flood-opacity="0" result="BackgroundImageFix"/>
<feColorMatrix in="SourceAlpha" type="matrix" values="0 0 0 0 0 0 0 0 0 0 0 0 0 0 0 0 0 0 127 0" result="hardAlpha"/>
<feOffset dy="-0.054456"/>
<feGaussianBlur stdDeviation="0.027228"/>
<feColorMatrix type="matrix" values="0 0 0 0 0.78755 0 0 0 0 0.78755 0 0 0 0 0.78755 0 0 0 0.19 0"/>
<feBlend mode="normal" in2="BackgroundImageFix" result="effect1_dropShadow_5343_3150"/>
<feBlend mode="normal" in="SourceGraphic" in2="effect1_dropShadow_5343_3150" result="shape"/>
<feColorMatrix in="SourceAlpha" type="matrix" values="0 0 0 0 0 0 0 0 0 0 0 0 0 0 0 0 0 0 127 0" result="hardAlpha"/>
<feOffset dy="0.27228"/>
<feGaussianBlur stdDeviation="0.13614"/>
<feComposite in2="hardAlpha" operator="arithmetic" k2="-1" k3="1"/>
<feColorMatrix type="matrix" values="0 0 0 0 0 0 0 0 0 0 0 0 0 0 0 0 0 0 0.74 0"/>
<feBlend mode="normal" in2="shape" result="effect2_innerShadow_5343_3150"/>
</filter>
<filter id="filter18_f_5343_3150" x="29.5094" y="39.0395" width="23.9041" height="17.9098" filterUnits="userSpaceOnUse" color-interpolation-filters="sRGB">
<feFlood flood-opacity="0" result="BackgroundImageFix"/>
<feBlend mode="normal" in="SourceGraphic" in2="BackgroundImageFix" result="shape"/>
<feGaussianBlur stdDeviation="0.329386" result="effect1_foregroundBlur_5343_3150"/>
</filter>
<filter id="filter19_f_5343_3150" x="74.7573" y="43.0944" width="25.7461" height="17.0318" filterUnits="userSpaceOnUse" color-interpolation-filters="sRGB">
<feFlood flood-opacity="0" result="BackgroundImageFix"/>
<feBlend mode="normal" in="SourceGraphic" in2="BackgroundImageFix" result="shape"/>
<feGaussianBlur stdDeviation="0.548976" result="effect1_foregroundBlur_5343_3150"/>
</filter>
<filter id="filter20_ddii_5343_3150" x="70.1351" y="45.3961" width="30.3227" height="15.7622" filterUnits="userSpaceOnUse" color-interpolation-filters="sRGB">
<feFlood flood-opacity="0" result="BackgroundImageFix"/>
<feColorMatrix in="SourceAlpha" type="matrix" values="0 0 0 0 0 0 0 0 0 0 0 0 0 0 0 0 0 0 127 0" result="hardAlpha"/>
<feOffset dy="0.102492"/>
<feGaussianBlur stdDeviation="0.0683279"/>
<feColorMatrix type="matrix" values="0 0 0 0 0 0 0 0 0 0 0 0 0 0 0 0 0 0 0.57 0"/>
<feBlend mode="normal" in2="BackgroundImageFix" result="effect1_dropShadow_5343_3150"/>
<feColorMatrix in="SourceAlpha" type="matrix" values="0 0 0 0 0 0 0 0 0 0 0 0 0 0 0 0 0 0 127 0" result="hardAlpha"/>
<feOffset dy="-0.0683279"/>
<feGaussianBlur stdDeviation="0.0683279"/>
<feColorMatrix type="matrix" values="0 0 0 0 0 0 0 0 0 0 0 0 0 0 0 0 0 0 1 0"/>
<feBlend mode="normal" in2="effect1_dropShadow_5343_3150" result="effect2_dropShadow_5343_3150"/>
<feBlend mode="normal" in="SourceGraphic" in2="effect2_dropShadow_5343_3150" result="shape"/>
<feColorMatrix in="SourceAlpha" type="matrix" values="0 0 0 0 0 0 0 0 0 0 0 0 0 0 0 0 0 0 127 0" result="hardAlpha"/>
<feOffset dy="0.941979"/>
<feGaussianBlur stdDeviation="0.959979"/>
<feComposite in2="hardAlpha" operator="arithmetic" k2="-1" k3="1"/>
<feColorMatrix type="matrix" values="0 0 0 0 0 0 0 0 0 0 0 0 0 0 0 0 0 0 1 0"/>
<feBlend mode="normal" in2="shape" result="effect3_innerShadow_5343_3150"/>
<feColorMatrix in="SourceAlpha" type="matrix" values="0 0 0 0 0 0 0 0 0 0 0 0 0 0 0 0 0 0 127 0" result="hardAlpha"/>
<feOffset dy="-0.102648"/>
<feGaussianBlur stdDeviation="0.102648"/>
<feComposite in2="hardAlpha" operator="arithmetic" k2="-1" k3="1"/>
<feColorMatrix type="matrix" values="0 0 0 0 0 0 0 0 0 0 0 0 0 0 0 0 0 0 1 0"/>
<feBlend mode="normal" in2="effect3_innerShadow_5343_3150" result="effect4_innerShadow_5343_3150"/>
</filter>
<filter id="filter21_d_5343_3150" x="74.3839" y="54.3389" width="9.18147" height="3.71491" filterUnits="userSpaceOnUse" color-interpolation-filters="sRGB">
<feFlood flood-opacity="0" result="BackgroundImageFix"/>
<feColorMatrix in="SourceAlpha" type="matrix" values="0 0 0 0 0 0 0 0 0 0 0 0 0 0 0 0 0 0 127 0" result="hardAlpha"/>
<feOffset dx="0.108912" dy="0.135289"/>
<feGaussianBlur stdDeviation="0.0676446"/>
<feColorMatrix type="matrix" values="0 0 0 0 1 0 0 0 0 1 0 0 0 0 1 0 0 0 0.24 0"/>
<feBlend mode="normal" in2="BackgroundImageFix" result="effect1_dropShadow_5343_3150"/>
<feBlend mode="normal" in="SourceGraphic" in2="effect1_dropShadow_5343_3150" result="shape"/>
</filter>
<filter id="filter22_d_5343_3150" x="97.0533" y="46.0903" width="2.87263" height="3.50593" filterUnits="userSpaceOnUse" color-interpolation-filters="sRGB">
<feFlood flood-opacity="0" result="BackgroundImageFix"/>
<feColorMatrix in="SourceAlpha" type="matrix" values="0 0 0 0 0 0 0 0 0 0 0 0 0 0 0 0 0 0 127 0" result="hardAlpha"/>
<feOffset dx="0.108912" dy="0.135289"/>
<feGaussianBlur stdDeviation="0.0676446"/>
<feColorMatrix type="matrix" values="0 0 0 0 1 0 0 0 0 1 0 0 0 0 1 0 0 0 0.24 0"/>
<feBlend mode="normal" in2="BackgroundImageFix" result="effect1_dropShadow_5343_3150"/>
<feBlend mode="normal" in="SourceGraphic" in2="effect1_dropShadow_5343_3150" result="shape"/>
</filter>
<linearGradient id="paint0_linear_5343_3150" x1="8.86136" y1="9.7358" x2="9.30265" y2="3.17239" gradientUnits="userSpaceOnUse">
<stop stop-color="#3F3F3F"/>
<stop offset="1" stop-color="#5C5C5C"/>
</linearGradient>
<linearGradient id="paint1_linear_5343_3150" x1="8.30489" y1="9.38905" x2="8.74269" y2="3.06108" gradientUnits="userSpaceOnUse">
<stop stop-color="#AAAAAA"/>
<stop offset="1" stop-color="#C2C2C2"/>
</linearGradient>
<linearGradient id="paint2_linear_5343_3150" x1="7.31855" y1="8.03925" x2="7.68287" y2="2.61957" gradientUnits="userSpaceOnUse">
<stop stop-color="#3F3F3F"/>
<stop offset="1" stop-color="#5C5C5C"/>
</linearGradient>
<linearGradient id="paint3_linear_5343_3150" x1="6.86585" y1="7.7623" x2="7.22781" y2="2.53071" gradientUnits="userSpaceOnUse">
<stop stop-color="#AAAAAA"/>
<stop offset="1" stop-color="#C2C2C2"/>
</linearGradient>
<linearGradient id="paint4_linear_5343_3150" x1="64.3115" y1="65.9914" x2="103.095" y2="21.1051" gradientUnits="userSpaceOnUse">
<stop stop-color="#D8D8D8"/>
<stop offset="1" stop-color="white"/>
</linearGradient>
<linearGradient id="paint5_linear_5343_3150" x1="69.2912" y1="8.80597" x2="47.3428" y2="28.5395" gradientUnits="userSpaceOnUse">
<stop stop-color="#E8EAE9"/>
<stop offset="0.498386" stop-color="#707072"/>
<stop offset="1" stop-color="#2F3032"/>
</linearGradient>
<linearGradient id="paint6_linear_5343_3150" x1="32.3791" y1="75.8458" x2="53.8065" y2="38.944" gradientUnits="userSpaceOnUse">
<stop stop-color="#E8EAE9"/>
<stop offset="0.498386" stop-color="#707072"/>
<stop offset="1" stop-color="#2F3032"/>
</linearGradient>
<linearGradient id="paint7_linear_5343_3150" x1="24.6265" y1="36.9486" x2="36.4687" y2="20.5297" gradientUnits="userSpaceOnUse">
<stop stop-color="#E8EAE9"/>
<stop offset="0.498386" stop-color="#707072"/>
<stop offset="1" stop-color="#2F3032"/>
</linearGradient>
<linearGradient id="paint8_linear_5343_3150" x1="68.6019" y1="54.0942" x2="71.4596" y2="46.3858" gradientUnits="userSpaceOnUse">
<stop stop-color="#ECEAEA"/>
<stop offset="1" stop-color="white" stop-opacity="0"/>
</linearGradient>
<linearGradient id="paint9_linear_5343_3150" x1="99.1797" y1="41.0074" x2="89.0539" y2="44.255" gradientUnits="userSpaceOnUse">
<stop stop-color="#ECEAEA"/>
<stop offset="1" stop-color="white" stop-opacity="0"/>
</linearGradient>
<linearGradient id="paint10_linear_5343_3150" x1="44.701" y1="54.821" x2="47.8839" y2="48.4735" gradientUnits="userSpaceOnUse">
<stop stop-color="#040404"/>
<stop offset="1" stop-color="#3C3C3C" stop-opacity="0"/>
</linearGradient>
<linearGradient id="paint11_linear_5343_3150" x1="87.7782" y1="55.53" x2="86.073" y2="51.9968" gradientUnits="userSpaceOnUse">
<stop stop-color="#4B4B4B"/>
<stop offset="0.899322" stop-opacity="0"/>
</linearGradient>
</defs>
</svg>
