<svg width="25" height="27" viewBox="0 0 25 27" fill="none" xmlns="http://www.w3.org/2000/svg">
<g clip-path="url(#clip0_5343_4002)">
<path d="M17.7148 25.2656V2.97656C17.7148 1.05469 16.6602 0 14.75 0H5.30469C3.37109 0 2.35156 1.05469 2.35156 2.97656V25.2656H17.7148ZM5.69141 12.2344C4.83594 12.2344 4.32031 11.7656 4.32031 10.9805V3.24609C4.32031 2.46094 4.83594 1.98047 5.69141 1.98047H14.3633C15.2188 1.98047 15.7461 2.46094 15.7461 3.24609V10.9805C15.7461 11.7656 15.2188 12.2344 14.3633 12.2344H5.69141ZM0.5 25.1836C0.5 25.7109 0.910156 26.1445 1.42578 26.1445H18.6172C19.1328 26.1445 19.5664 25.7109 19.5664 25.1836C19.5664 24.6797 19.1328 24.2578 18.6172 24.2578H1.42578C0.921875 24.2578 0.5 24.668 0.5 25.1836ZM16.8125 15.4336H17.832C18.3711 15.4336 18.7109 15.7383 18.7109 16.3242V20.2031C18.7109 21.8672 19.7188 22.875 21.3828 22.875C23.0352 22.875 24.0312 21.8672 24.0312 20.2031V5.84766C24.0312 5.14453 23.8438 4.60547 23.5039 4.06641L21.8984 1.46484C21.3008 0.515625 19.9062 1.37109 20.5039 2.33203L21.875 4.55859C22.0039 4.76953 21.9922 5.01562 21.8516 5.22656L20.3164 7.37109C19.8125 8.0625 19.8828 8.71875 20.4102 9.33984L22.3789 11.625V20.2031C22.3789 20.8359 22.0039 21.2227 21.3828 21.2227C20.7383 21.2227 20.3633 20.8359 20.3633 20.2031V16.3242C20.3633 14.707 19.4023 13.7812 17.832 13.7812H16.8125V15.4336Z" fill="white"/>
</g>
<defs>
<clipPath id="clip0_5343_4002">
<rect width="23.5312" height="26.1445" fill="white" transform="translate(0.5)"/>
</clipPath>
</defs>
</svg>
