<svg width="59" height="63" viewBox="0 0 59 63" fill="none" xmlns="http://www.w3.org/2000/svg">
<path d="M43.9285 60.8821V7.17257C43.9285 2.54147 41.4119 0 36.826 0H11.4644C6.85069 0 4.418 2.54147 4.418 7.17257V60.8821H8.89192L8.91989 7.22905C8.91989 5.47827 9.75874 4.5464 11.5483 4.5464H36.742C38.4758 4.5464 39.3985 5.45003 39.3985 7.22905V60.8821H43.9285ZM0 60.6845C0 61.9552 0.978671 63 2.209 63H46.0814C47.3117 63 48.3184 61.9552 48.3184 60.6845C48.3184 59.4703 47.3117 58.4536 46.0814 58.4536H2.209C1.00663 58.4536 0 59.4421 0 60.6845ZM15.2114 31.0905H33.0791C34.9525 31.0905 36.2388 29.9611 36.2388 28.2386V11.126C36.2388 9.40341 34.9245 8.21741 33.0791 8.21741H15.2114C13.3659 8.21741 12.1076 9.40341 12.1076 11.126V28.2386C12.1076 29.9611 13.3659 31.0905 15.2114 31.0905ZM41.7753 37.1901H44.2079C45.4942 37.1901 46.2771 37.9243 46.2771 39.3362V48.6831C46.2771 52.6931 48.6818 55.1215 52.6525 55.1215C56.6232 55.1215 59 52.6931 59 48.6831V14.091C59 12.3967 58.5526 11.0977 57.7416 9.79877L53.9109 3.5298C52.4848 1.24249 49.1574 3.30389 50.5554 5.61946L53.8549 10.9848C54.1624 11.4931 54.1345 12.0861 53.799 12.5944L50.1359 17.762C48.9335 19.4281 49.1013 21.0094 50.3597 22.5061L55.0572 28.0126V48.6831C55.0572 50.208 54.1345 51.14 52.6525 51.14C51.1426 51.14 50.2478 50.208 50.2478 48.6831V39.3362C50.2478 35.4392 47.955 33.2083 44.2079 33.2083H41.7753V37.1901Z" fill="black" fill-opacity="0.85"/>
</svg>
