<svg width="23" height="30" viewBox="0 0 23 30" fill="none" xmlns="http://www.w3.org/2000/svg">
<path d="M5.85938 0C2.625 0 0 2.625 0 5.85938C0 7.25391 0.492188 8.54297 1.30078 9.55078C1.5 9.79688 1.73438 9.89062 1.95703 9.89062C2.53125 9.89062 3.02344 9.21094 2.53125 8.625C1.89844 7.875 1.53516 6.91406 1.53516 5.85938C1.53516 3.46875 3.46875 1.53516 5.85938 1.53516C8.25 1.53516 10.1719 3.46875 10.1719 5.85938C10.1719 5.92969 10.1719 6 10.1719 6.10547C10.1836 6.63281 10.5469 6.86719 10.9219 6.86719C11.2852 6.86719 11.6602 6.60938 11.6953 6.19922C11.707 6.11719 11.707 6.01172 11.707 5.85938C11.707 2.625 9.09375 0 5.85938 0Z" fill="white"/>
<path d="M17.25 25.2537C22.0312 23.5193 23.625 19.5467 21.7617 14.4256L21 12.3162C20.2852 10.3826 18.9375 9.53891 17.8828 9.91391C17.6367 10.0076 17.5547 10.1834 17.6367 10.406L17.9766 11.3436C18.1406 11.7889 18 12.0818 17.7305 12.1873C17.4492 12.281 17.1445 12.1521 16.9805 11.7068L16.7578 11.0975C16.3359 9.94907 15.3398 9.4686 14.3555 9.83188C13.9102 9.99594 13.7695 10.2537 13.9102 10.6287L14.3789 11.906C14.5312 12.3514 14.3906 12.6443 14.1328 12.7498C13.8398 12.8553 13.5352 12.7146 13.3711 12.2693L12.9492 11.0975C12.4805 9.80844 11.5195 9.48032 10.5586 9.83188C10.1367 9.98423 9.98434 10.2654 10.1133 10.6287L11.0273 13.1248C11.1914 13.5701 11.0391 13.8631 10.7812 13.9686C10.4883 14.074 10.1836 13.9334 10.0195 13.4881L6.98434 5.13266C6.69137 4.31235 5.9648 3.98423 5.2734 4.23032C4.53512 4.49985 4.21871 5.21469 4.51168 6.03501L8.9648 18.2693C9.07027 18.574 8.94137 18.7967 8.75387 18.867C8.56637 18.9373 8.36715 18.8787 8.13277 18.6209L5.12105 15.3865C4.67574 14.9178 4.20699 14.8006 3.7148 14.9881C2.9648 15.2576 2.67184 15.949 2.89449 16.5818C2.98824 16.8279 3.11715 17.0154 3.23434 17.1678L6.9609 21.8436C10.1016 25.781 13.7344 26.531 17.25 25.2537Z" fill="white"/>
</svg>
