<svg width="60" height="15" viewBox="0 0 60 15" fill="none" xmlns="http://www.w3.org/2000/svg">
<path d="M3.11774 0.0176115C3.11774 0.626128 3.14167 1.18218 3.09978 1.73125C3.09081 1.83966 2.83649 2.00054 2.69287 2.00753C1.95382 2.03901 1.99272 1.89562 1.99272 2.88183C1.99272 3.49734 1.97776 4.11285 2.00469 4.72836C2.01068 4.87524 2.16327 5.13054 2.25303 5.13054C3.47679 5.15852 4.70354 5.14803 5.97517 5.14803C5.98415 4.91022 6.00209 4.71437 6.00209 4.51503C6.00209 3.46936 6.00209 2.42719 6.00209 1.38153C6.00509 0.573668 6.42099 0.0665665 7.11814 0.0106106C7.24381 0.000119209 7.37247 0.00712013 7.50113 0.00712013C22.4944 0.00712013 37.4877 0.00712013 52.4809 0.00712013C52.7173 0.00712013 52.9627 0.0211029 53.19 0.0875502C53.6957 0.23793 53.9919 0.70306 53.9979 1.31158C54.0039 2.43069 54.0129 3.5498 53.9949 4.66891C53.9889 5.06409 54.1026 5.183 54.4347 5.17251C55.47 5.14453 56.5083 5.14103 57.5435 5.15502C57.8846 5.15852 58.0342 5.0571 58.0163 4.62345C57.9893 3.91701 57.9953 3.20707 58.0163 2.49714C58.0252 2.13692 57.9235 2.01452 57.6063 2.00753C56.6279 1.98655 56.6279 1.97255 56.6279 0.797484C56.6279 0.268239 56.8513 0.00362015 57.2982 0.00362015C57.9684 0.00362015 58.6386 -0.0033741 59.3088 0.00362015C59.8115 0.0141115 60 0.237932 60 0.821968C60 5.25994 60 9.69791 60 14.1359C60 14.7304 59.7816 14.9857 59.2729 14.9927C58.5219 15.0032 57.7739 14.9857 57.0229 14.9997C56.7386 15.0067 56.601 14.8948 56.6279 14.5521C56.6339 14.4611 56.6279 14.3667 56.6279 14.2723C56.6279 13.0482 56.6249 13.0378 57.6422 12.9888C57.8996 12.9748 58.0192 12.8944 58.0133 12.5726C58.0013 11.8277 57.9983 11.0793 58.0133 10.3344C58.0222 9.97419 57.8786 9.89375 57.6093 9.90075C56.5262 9.92173 55.4401 9.93572 54.357 9.93572C54.0458 9.93572 53.9889 10.1001 53.9949 10.4148C54.0069 11.4605 54.0039 12.5027 53.9979 13.5483C53.9949 14.3632 53.5102 14.9507 52.819 14.9962C52.7233 15.0032 52.6275 14.9962 52.5318 14.9962C37.5236 14.9962 22.5123 14.9962 7.50411 14.9962C7.37545 14.9962 7.24979 15.0032 7.12113 14.9892C6.46287 14.9263 6.00808 14.3667 6.00509 13.5973C5.99911 12.5516 5.99312 11.5095 6.01107 10.4638C6.01706 10.0896 5.93627 9.93222 5.58919 9.93572C4.53598 9.9532 3.48277 9.94621 2.43256 9.92523C2.11241 9.91823 1.97177 10.0197 1.98673 10.4288C2.01366 11.1003 2.01067 11.7718 1.98673 12.4432C1.97177 12.8524 2.07351 13.0063 2.44153 12.9923C3.15664 12.9643 3.12971 12.8629 3.12971 13.8036C3.12971 14.5963 2.79858 14.9927 2.13634 14.9927C1.67257 14.9927 1.21179 14.9962 0.74802 14.9927C0.236378 14.9857 0.00598145 14.7339 0.00598145 14.1569C0.00299072 9.70141 0.00598526 5.24595 3.8147e-06 0.786993C3.8147e-06 0.36383 0.143623 0.0455856 0.487713 0.0246019C1.34344 -0.0208616 2.20217 0.0106106 3.12373 0.0106106L3.11774 0.0176115ZM30.0045 12.9888C36.9102 12.9888 43.8159 12.9888 50.7216 12.9888C51.6132 12.9888 51.9753 12.5656 51.9753 11.5374C51.9753 8.87256 51.9753 6.20419 51.9753 3.53931C51.9753 2.38173 51.6581 2.01802 50.6528 2.01802C46.6973 2.01802 42.7417 2.01802 38.7862 2.01802C28.9632 2.01802 19.1373 2.01802 9.31432 2.01802C8.34489 2.01802 8.0008 2.42719 8.0008 3.56729C8.0008 6.15872 8.0008 8.75016 8.0008 11.3416C8.0008 12.5901 8.33591 12.9923 9.38313 12.9923C16.2559 12.9923 23.1317 12.9923 30.0045 12.9923V12.9888Z" fill="#007AFF"/>
</svg>
