<svg width="51" height="59" viewBox="0 0 51 59" fill="none" xmlns="http://www.w3.org/2000/svg">
<path d="M24.141 1.50002H24.1363C23.7216 1.49872 23.3114 1.57817 22.9301 1.73299C22.5487 1.88778 22.2047 2.11439 21.9172 2.39809L21.9114 2.40382L21.9114 2.4038L18.9151 5.32827L17.8679 6.3504L16.8202 5.32878L13.821 2.40431L13.8193 2.40262C13.2335 1.82958 12.4326 1.50213 11.5909 1.50213C10.7494 1.50213 9.94864 1.82944 9.36288 2.40228L24.141 1.50002ZM24.141 1.50002H46.3636C47.2057 1.50002 48.0069 1.82775 48.5928 2.40122C49.1775 2.97363 49.5 3.74309 49.5 4.53848V54.4615C49.5 55.2569 49.1775 56.0264 48.5928 56.5988C48.0069 57.1723 47.2057 57.5 46.3636 57.5H4.63638C3.79436 57.5 2.99311 57.1723 2.40727 56.5988C1.82251 56.0264 1.50002 55.2569 1.50002 54.4615L1.50003 23.6312L1.50002 23.6263C1.49873 23.2334 1.5772 22.8434 1.73171 22.4787C1.88625 22.1139 2.11424 21.7806 2.40406 21.4992L2.40408 21.4992L2.40989 21.4935L5.39745 18.5605L6.48723 17.4906L5.39797 16.4202L2.41041 13.4844L2.40869 13.4827C1.82438 12.9104 1.50217 12.1412 1.50217 11.3462C1.50217 10.5513 1.82425 9.78227 2.40834 9.20997C2.40846 9.20985 2.40857 9.20974 2.40869 9.20962L9.36253 2.40262L24.141 1.50002ZM2.34569e-05 23.6312V54.4615C2.34569e-05 55.6652 0.488496 56.8196 1.35798 57.6707C2.22747 58.5218 3.40675 59 4.63638 59H46.3636C47.5933 59 48.7726 58.5218 49.642 57.6707C50.5115 56.8196 51 55.6652 51 54.4615V4.53848C51 3.33481 50.5115 2.18043 49.642 1.32931C48.7726 0.478181 47.5933 2.29615e-05 46.3636 2.29615e-05H24.141C23.5319 -0.00188187 22.9285 0.114747 22.3659 0.343128L2.34569e-05 23.6312ZM3.5871 10.2743L2.49206 11.3462L3.5871 12.4181L6.58335 15.3511L7.63263 16.3782L8.68191 15.3511L15.6365 8.54338L16.7315 7.47146L15.6365 6.39955L12.6402 3.46657L11.5909 2.43944L10.5416 3.46657L3.5871 10.2743ZM46.3636 55.9615H47.8636V54.4615V4.53848V3.03848H46.3636H24.141H23.529L23.0917 3.46657L8.22346 18.0208L3.5871 22.5593L3.13638 23.0005V23.6312V54.4615V55.9615H4.63638H46.3636ZM28.475 38.6515L39.9123 47.0476C39.9123 47.0476 39.9123 47.0476 39.9124 47.0476C39.9981 47.1106 40.0683 47.1879 40.1204 47.274L41.4038 46.4977L40.1204 47.274C40.1724 47.3601 40.2057 47.4537 40.2197 47.5495C40.2337 47.6453 40.2283 47.7429 40.2036 47.8373C40.1789 47.9316 40.135 48.0221 40.073 48.1031L41.2636 49.0154L40.0729 48.1031C40.0108 48.1842 39.9314 48.2546 39.838 48.3087C39.7445 48.3629 39.6396 48.3993 39.5292 48.4147C39.4187 48.4302 39.3063 48.4241 39.1986 48.3971C39.0911 48.3702 38.9917 48.3231 38.9059 48.2601L26.3877 39.0697L25.5 38.418L24.6123 39.0697L12.0941 48.2601C11.92 48.388 11.6954 48.4461 11.4708 48.4147C11.2466 48.3834 11.0528 48.2672 10.9271 48.1031C10.8023 47.9402 10.7523 47.7415 10.7803 47.5495C10.8084 47.3571 10.9147 47.1746 11.0877 47.0476L22.525 38.6515L24.1721 37.4423L22.525 36.2332L11.0877 27.837C11.0877 27.837 11.0877 27.837 11.0877 27.837C10.9146 27.71 10.8084 27.5275 10.7803 27.3351C10.7523 27.1431 10.8023 26.9444 10.9271 26.7815C11.0528 26.6174 11.2466 26.5013 11.4708 26.4699C11.6954 26.4385 11.92 26.4967 12.0941 26.6245L24.6123 35.8149L25.5 36.4666L26.3877 35.8149L38.9059 26.6245C39.08 26.4967 39.3047 26.4385 39.5292 26.4699C39.7534 26.5013 39.9472 26.6174 40.0729 26.7815C40.1977 26.9444 40.2477 27.1431 40.2197 27.3351C40.1916 27.5275 40.0854 27.71 39.9124 27.837C39.9123 27.837 39.9123 27.837 39.9123 27.837L28.475 36.2332L26.8279 37.4423L28.475 38.6515ZM27 11.3462C27 11.1526 27.0783 10.9603 27.2283 10.8135C27.3794 10.6656 27.591 10.5769 27.8182 10.5769H39.4091C39.6363 10.5769 39.8479 10.6656 39.999 10.8135C40.149 10.9603 40.2273 11.1526 40.2273 11.3462C40.2273 11.5397 40.149 11.732 39.999 11.8788C39.8479 12.0267 39.6363 12.1154 39.4091 12.1154H27.8182C27.591 12.1154 27.3794 12.0267 27.2283 11.8788C27.0783 11.732 27 11.5397 27 11.3462Z" stroke="black" stroke-width="3"/>
</svg>
