<svg width="83" height="53" viewBox="0 0 83 53" fill="none" xmlns="http://www.w3.org/2000/svg">
<g filter="url(#filter0_ii_5343_3204)">
<path fill-rule="evenodd" clip-rule="evenodd" d="M62.2301 16.9573C62.2691 16.9914 62.3106 17.0227 62.3548 17.0498C62.5092 17.144 62.6482 17.2107 62.7723 17.2474C64.3334 17.7081 77.3166 25.2644 80.1136 28.2395C82.8354 31.1348 82.6376 32.819 82.5458 33.6009C82.5326 33.7138 82.5215 33.8079 82.5218 33.8841C82.5232 34.2642 82.5009 35.0283 82.4726 36.0006C82.456 36.5732 82.4372 37.2179 82.4199 37.8989L82.3612 40.2125C82.3514 40.3852 82.3477 40.5616 82.3439 40.7416C82.3278 41.5063 82.3104 42.3377 81.8186 43.2366C81.2124 44.3448 78.3186 48.3908 64.6748 52.3003C60.0484 53.626 54.7572 51.8885 51.3933 50.3931C49.9869 49.8279 48.9248 49.2896 48.4011 49.0122C48.3206 48.9696 48.2592 48.9044 48.2204 48.8264C48.2099 48.8053 48.1921 48.7857 48.1714 48.7744C48.1402 48.7573 48.1223 48.7269 48.1204 48.6914C48.059 47.5324 47.8256 45.8976 47.4647 44.26C47.0524 42.5005 46.4943 40.7542 45.8625 39.6079C44.3754 36.9098 41.1499 33.5471 38.5252 34.3794C35.5465 35.3239 35.6656 39.5764 35.6966 40.5919C35.7057 40.8905 35.7352 41.0902 35.7644 41.2875L35.7644 41.2875C35.7975 41.5119 35.8302 41.733 35.8319 42.0927C35.832 42.1105 35.831 42.1278 35.829 42.1448C35.8271 42.1611 35.8254 42.1775 35.8253 42.1939C35.8249 42.2535 35.8232 42.319 35.8201 42.3915C35.8153 42.503 35.6947 42.5687 35.597 42.515C35.5608 42.4952 35.5184 42.4921 35.4775 42.4981C35.3891 42.5111 35.2943 42.4969 35.206 42.4488L12.6458 30.1746C12.5261 30.1095 12.4422 29.9927 12.4276 29.8572C12.3731 29.3538 12.3894 28.7699 12.4076 28.1188C12.4578 26.3207 12.5222 24.0097 11.1512 21.4624C9.89795 19.134 8.02585 17.5664 6.27753 18.0668C4.52919 18.5671 4.01005 20.4234 3.88909 21.4615C3.77029 22.4809 3.80169 23.4201 3.81991 23.9648L3.81991 23.965C3.82724 24.1841 3.83243 24.3393 3.82484 24.4102C3.79837 24.6573 1.35549 22.4449 1.21572 21.622C0.790355 19.1173 0.747738 16.781 1.06834 14.2579C1.12078 13.8451 1.2997 12.8038 1.42657 12.3957C1.44585 12.3336 1.45672 12.2696 1.45446 12.2047C1.42421 11.3352 1.60809 10.0636 1.85928 9.52922C1.88176 9.4814 1.90377 9.43103 1.92689 9.37811C2.19663 8.76057 2.61792 7.79613 5.7088 6.50682C10.0977 4.67608 22.0241 0.655292 22.4839 0.565904C23.5702 0.3547 24.9513 0.492325 26.0694 0.603739C26.7254 0.669113 27.2909 0.725463 27.6531 0.697026C32.885 0.286325 38.9156 1.16021 46.7948 5.38867C47.8522 5.86934 48.8959 6.4137 49.9043 7.03051C52.4226 8.57092 54.5361 10.1923 56.2901 11.6794C58.3384 13.3286 59.9127 14.8046 61.0429 15.8642C61.5156 16.3073 61.9106 16.6776 62.2301 16.9573Z" fill="url(#paint0_linear_5343_3204)"/>
</g>
<defs>
<filter id="filter0_ii_5343_3204" x="0.857788" y="-1.72267" width="83.3656" height="54.4946" filterUnits="userSpaceOnUse" color-interpolation-filters="sRGB">
<feFlood flood-opacity="0" result="BackgroundImageFix"/>
<feBlend mode="normal" in="SourceGraphic" in2="BackgroundImageFix" result="shape"/>
<feColorMatrix in="SourceAlpha" type="matrix" values="0 0 0 0 0 0 0 0 0 0 0 0 0 0 0 0 0 0 127 0" result="hardAlpha"/>
<feOffset dx="1.63368" dy="-2.17824"/>
<feGaussianBlur stdDeviation="6.53472"/>
<feComposite in2="hardAlpha" operator="arithmetic" k2="-1" k3="1"/>
<feColorMatrix type="matrix" values="0 0 0 0 0 0 0 0 0 0 0 0 0 0 0 0 0 0 0.07 0"/>
<feBlend mode="normal" in2="shape" result="effect1_innerShadow_5343_3204"/>
<feColorMatrix in="SourceAlpha" type="matrix" values="0 0 0 0 0 0 0 0 0 0 0 0 0 0 0 0 0 0 127 0" result="hardAlpha"/>
<feOffset dy="-0.27228"/>
<feGaussianBlur stdDeviation="0.54456"/>
<feComposite in2="hardAlpha" operator="arithmetic" k2="-1" k3="1"/>
<feColorMatrix type="matrix" values="0 0 0 0 0 0 0 0 0 0 0 0 0 0 0 0 0 0 0.09 0"/>
<feBlend mode="normal" in2="effect1_innerShadow_5343_3204" result="effect2_innerShadow_5343_3204"/>
</filter>
<linearGradient id="paint0_linear_5343_3204" x1="46.3115" y1="49.9914" x2="85.0949" y2="5.1051" gradientUnits="userSpaceOnUse">
<stop stop-color="#D8D8D8"/>
<stop offset="1" stop-color="white"/>
</linearGradient>
</defs>
</svg>
